<svg width="28" height="36" viewBox="0 0 28 36" fill="none" xmlns="http://www.w3.org/2000/svg">
<path d="M10.875 1.75H3.375C2.33947 1.75 1.5 2.58947 1.5 3.625V32.375C1.5 33.4105 2.33947 34.25 3.375 34.25H24.625C25.6605 34.25 26.5 33.4105 26.5 32.375V17.375M10.875 1.75H11.5C19.7843 1.75 26.5 8.46573 26.5 16.75V17.375M10.875 1.75C13.9816 1.75 16.5 4.2684 16.5 7.375V9.875C16.5 10.9105 17.3395 11.75 18.375 11.75H20.875C23.9816 11.75 26.5 14.2684 26.5 17.375M9 23L12.75 26.75L19 18" stroke="#2B1887" stroke-width="2.5" stroke-linecap="round" stroke-linejoin="round"/>
</svg>
